/* XPM */
static char * C:\Users\shama\devel\java\runawfe_devstudio\plugins\ru_runa_gpd_app\icons\logo\16_xpm[] = {
"16 16 45 1",
" 	c #FFFFFF",
".	c #DD6D26",
"+	c #AF1F23",
"@	c #E22126",
"#	c #E12126",
"$	c #DF2126",
"%	c #DC2026",
"&	c #DB2026",
"*	c #DA2026",
"=	c #D92026",
"-	c #D82026",
";	c #DE2126",
">	c #DD2126",
",	c #D72026",
"'	c #D62026",
")	c #D52025",
"!	c #D52026",
"~	c #D42025",
"{	c #D32025",
"]	c #D22025",
"^	c #D12025",
"/	c #D02025",
"(	c #CF2025",
"_	c #CE2025",
":	c #CD2025",
"<	c #CC2025",
"[	c #CB2025",
"}	c #CA2025",
"|	c #C92025",
"1	c #C82025",
"2	c #C72025",
"3	c #C62025",
"4	c #C52024",
"5	c #C42024",
"6	c #BE1F24",
"7	c #BD1F24",
"8	c #C32024",
"9	c #C22024",
"0	c #C12024",
"a	c #C02024",
"b	c #BF2024",
"c	c #BC1F24",
"d	c #BA1F24",
"e	c #F7A73D",
"f	c #F9AB3F",
"....... ++++++++",
".ffffff +&=,++++",
".f      +=,~+   ",
".f ++++++,~]++++",
".f +$>&='~](++++",
".f +>  '~   +   ",
".f +& ' ^ :}++++",
"   +- ~ (   ++++",
"++++' ^ <}1 +   ",
"++++{ ( }24 + f.",
"   +^  }2   + f.",
"++++_<|248a6+ f.",
"++++<|2++++++ f.",
"   +|25+      f.",
"++++259+ ffffff.",
"++++++++ ......."};
