/* XPM */
static char * Runa WFE_ DS_16_24b_xpm[] = {
"16 16 4 1",
" 	c #FECF3F",
".	c #FFFFFF",
"+	c #AD0419",
"@	c #AF091E",
"       .++++++++",
"       .++++++++",
"  ......+++++...",
"  .+++++++++++++",
"  .+++++++++++++",
"  .++..++...+...",
"  .++.+.+.++++++",
"...++.+.+...++++",
"+++++.+.+++.+...",
"+++++.+.++@.+.  ",
"...++..++...+.  ",
"+++++++++++++.  ",
"+++++++++++++.  ",
"...+++++......  ",
"++++++++.       ",
"++++++++.       "};
