/* XPM */
static char * 16_xpm[] = {
"16 16 28 1",
" 	c None",
".	c #DD6D26",
"+	c #FFFFFF",
"@	c #AF1F23",
"#	c #F9AB3F",
"$	c #DB2026",
"%	c #D92026",
"&	c #D72026",
"*	c #D42025",
"=	c #D22025",
"-	c #DF2126",
";	c #DD2126",
">	c #D62026",
",	c #CF2025",
"'	c #D12025",
")	c #CD2025",
"!	c #CA2025",
"~	c #D82026",
"{	c #CC2025",
"]	c #C82025",
"^	c #D32025",
"/	c #C72025",
"(	c #C52024",
"_	c #CE2025",
":	c #C92025",
"<	c #C32024",
"[	c #C02024",
"}	c #BE1F24",
".......+@@@@@@@@",
".######+@$%&@@@@",
".#++++++@%&*@+++",
".#+@@@@@@&*=@@@@",
".#+@-;$%>*=,@@@@",
".#+@;++>*+++@+++",
".#+@$+>+'+)!@@@@",
"+++@~+*+,+++@@@@",
"@@@@>+'+{!]+@###",
"@@@@^+,+!/(+@##.",
"++@@'++!/+++@##.",
"@@@@_{:/(<[}@##.",
"@@@@@@@@@@@@@##.",
"+++@+@+@+@+++##.",
"@@+@+@++@@+++##.",
"@@@+@@+@+@+@@..."};
